# OBJ-File exported by 3D-Tool

mtllib cone_prt3.mtl

g cone_prt3.prt
# cone_prt3+:+cone_prt3.prt
s off

v -5.000000 0.000000 0.000000
v -4.903926 0.000000 0.975452
v 0.000000 15.000000 0.000000
v -4.619398 0.000000 1.913417
v -4.157348 0.000000 2.777851
v -3.535534 0.000000 3.535534
v -2.777851 0.000000 4.157348
v -1.913417 0.000000 4.619398
v -0.975452 0.000000 4.903926
v 0.000000 0.000000 5.000000
v 1.913417 0.000000 4.619398
v 0.975452 0.000000 4.903926
v 2.777851 0.000000 4.157348
v 3.535534 0.000000 3.535534
v 4.157348 0.000000 2.777851
v 4.619398 0.000000 1.913417
v 4.903926 0.000000 0.975452
v 5.000000 0.000000 0.000000
v 4.903926 0.000000 -0.975452
v 4.619398 0.000000 -1.913417
v 4.157348 0.000000 -2.777851
v 3.535534 0.000000 -3.535534
v 2.777851 0.000000 -4.157348
v 1.913417 0.000000 -4.619398
v 0.975452 0.000000 -4.903926
v 0.000000 0.000000 -5.000000
v -1.913417 0.000000 -4.619398
v -0.975452 0.000000 -4.903926
v -2.777851 0.000000 -4.157348
v -3.535534 0.000000 -3.535534
v -4.157348 0.000000 -2.777851
v -4.619398 0.000000 -1.913417
v -4.903926 0.000000 -0.975452
# 33 Vertices

vn -0.948683 0.316228 0.000000
vn -0.929970 0.315244 0.189147
vn -0.907738 0.315735 0.276268
vn -0.876519 0.315863 0.363242
vn -0.788380 0.315352 0.528214
vn -0.835786 0.315391 0.449432
vn -0.670937 0.315735 0.670937
vn -0.734656 0.315981 0.600364
vn -0.528214 0.315352 0.788380
vn -0.600364 0.315981 0.734656
vn -0.363242 0.315863 0.876519
vn -0.189147 0.315244 0.929970
vn -0.276268 0.315735 0.907738
vn 0.000000 0.316228 0.948683
vn -0.094444 0.314814 0.944443
vn 0.363242 0.315863 0.876519
vn 0.276268 0.315735 0.907738
vn 0.189147 0.315244 0.929970
vn 0.528214 0.315352 0.788380
vn 0.670937 0.315735 0.670937
vn 0.600364 0.315981 0.734656
vn 0.788380 0.315352 0.528214
vn 0.734656 0.315981 0.600364
vn 0.876519 0.315863 0.363242
vn 0.835786 0.315391 0.449432
vn 0.929970 0.315244 0.189147
vn 0.907738 0.315735 0.276268
vn 0.948683 0.316228 0.000000
vn 0.094444 0.314814 0.944443
vn 0.929970 0.315244 -0.189147
vn 0.907738 0.315735 -0.276268
vn 0.876519 0.315863 -0.363242
vn 0.788380 0.315352 -0.528214
vn 0.835786 0.315391 -0.449432
vn 0.670937 0.315735 -0.670937
vn 0.734656 0.315981 -0.600364
vn 0.528214 0.315352 -0.788380
vn 0.600364 0.315981 -0.734656
vn 0.363242 0.315863 -0.876519
vn 0.189147 0.315244 -0.929970
vn 0.276268 0.315735 -0.907738
vn 0.000000 0.316228 -0.948683
vn 0.094444 0.314814 -0.944443
vn -0.363242 0.315863 -0.876519
vn -0.276268 0.315735 -0.907738
vn -0.189147 0.315244 -0.929970
vn -0.528214 0.315352 -0.788380
vn -0.670937 0.315735 -0.670937
vn -0.600364 0.315981 -0.734656
vn -0.788380 0.315352 -0.528214
vn -0.734656 0.315981 -0.600364
vn -0.876519 0.315863 -0.363242
vn -0.835786 0.315391 -0.449432
vn -0.929970 0.315244 -0.189147
vn -0.907738 0.315735 -0.276268
vn -0.094444 0.314814 -0.944443
vn 0.000000 -1.000000 0.000000
# 57 Normals

usemtl Color0
f 1//1 2//2 3//3
f 3//3 2//2 4//4
f 4//4 5//5 3//6
f 5//5 6//7 3//8
f 6//7 7//9 3//10
f 3//10 7//9 8//11
f 8//11 9//12 3//13
f 9//12 10//14 3//15
f 11//16 3//17 12//18
f 11//16 13//19 3//17
f 13//19 14//20 3//21
f 14//20 15//22 3//23
f 15//22 16//24 3//25
f 16//24 17//26 3//27
f 3//27 17//26 18//28
f 3//29 10//14 12//18
f 18//28 19//30 3//31
f 3//31 19//30 20//32
f 20//32 21//33 3//34
f 21//33 22//35 3//36
f 22//35 23//37 3//38
f 3//38 23//37 24//39
f 24//39 25//40 3//41
f 25//40 26//42 3//43
f 27//44 3//45 28//46
f 27//44 29//47 3//45
f 29//47 30//48 3//49
f 30//48 31//50 3//51
f 31//50 32//52 3//53
f 32//52 33//54 3//55
f 3//55 33//54 1//1
f 3//56 26//42 28//46
f 12//57 9//57 11//57
f 11//57 9//57 8//57
f 11//57 8//57 13//57
f 13//57 8//57 7//57
f 13//57 7//57 14//57
f 14//57 7//57 6//57
f 14//57 6//57 15//57
f 15//57 6//57 5//57
f 15//57 5//57 16//57
f 16//57 5//57 4//57
f 16//57 4//57 17//57
f 17//57 4//57 2//57
f 17//57 2//57 18//57
f 18//57 2//57 1//57
f 18//57 1//57 19//57
f 19//57 1//57 33//57
f 19//57 33//57 20//57
f 20//57 33//57 32//57
f 20//57 32//57 21//57
f 21//57 32//57 31//57
f 21//57 31//57 22//57
f 22//57 31//57 30//57
f 22//57 30//57 23//57
f 23//57 30//57 29//57
f 23//57 29//57 24//57
f 24//57 29//57 27//57
f 24//57 27//57 25//57
f 25//57 27//57 28//57
f 25//57 28//57 26//57
f 12//57 10//57 9//57
# 62 Facets

