# OBJ-File exported by 3D-Tool

mtllib TestModel_inch.mtl

g Teil 17
# TestModel_inch+:+Teil 17
s off

v -1.584644 -1.062992 -0.015748
v -1.584644 1.062992 -0.015748
v 1.584647 1.062992 -0.015748
v 1.584647 1.062992 0.015749
v 1.584647 -1.062992 -0.015748
v 1.622361 1.055476 -0.015748
v 1.622361 1.055476 0.015749
v -1.622361 -1.055476 -0.015748
v -1.622361 1.055476 -0.015748
v -1.584644 1.062992 0.015749
v -1.654244 -1.034166 -0.015748
v -1.654244 1.034166 -0.015748
v -1.622361 1.055476 0.015749
v -1.675558 -1.002284 -0.015748
v -1.675558 1.002284 -0.015748
v -1.654244 1.034166 0.015749
v -1.683072 -0.964567 -0.015748
v -1.683072 0.964567 -0.015748
v -1.675558 1.002284 0.015749
v -1.683072 0.964567 0.015749
v -1.683072 -0.964567 0.015749
v -1.675558 -1.002284 0.015749
v -1.654244 -1.034166 0.015749
v -1.622361 -1.055476 0.015749
v -1.584644 -1.062992 0.015749
v 1.622361 -1.055476 -0.015748
v 1.584647 -1.062992 0.015749
v 1.654244 1.034166 -0.015748
v 1.654244 -1.034166 -0.015748
v 1.622361 -1.055476 0.015749
v 1.675558 1.002284 -0.015748
v 1.675558 -1.002284 -0.015748
v 1.654244 -1.034166 0.015749
v 1.683072 0.964567 -0.015748
v 1.683072 -0.964567 -0.015748
v 1.675558 -1.002284 0.015749
v 1.683072 -0.964567 0.015749
v 1.683072 0.964567 0.015749
v 1.675558 1.002284 0.015749
v 1.654244 1.034166 0.015749
# 40 Vertices

vn 0.000000 0.000000 -1.000000
vn 0.000000 1.000000 0.000000
vn 0.196116 0.980581 0.000000
vn -0.196116 0.980581 0.000000
vn -0.556508 0.830842 0.000000
vn -0.830842 0.556508 0.000000
vn -0.980581 0.196116 0.000000
vn -1.000000 0.000000 0.000000
vn -0.980581 -0.196116 0.000000
vn -0.830842 -0.556508 0.000000
vn -0.556508 -0.830842 0.000000
vn -0.196116 -0.980581 0.000000
vn 0.000000 -1.000000 0.000000
vn 0.196116 -0.980581 0.000000
vn 0.556508 -0.830842 0.000000
vn 0.830842 -0.556508 0.000000
vn 0.980581 -0.196116 0.000000
vn 1.000000 0.000000 0.000000
vn 0.980581 0.196116 0.000000
vn 0.830842 0.556508 0.000000
vn 0.556508 0.830842 0.000000
vn 0.000000 0.000000 1.000000
# 22 Normals

usemtl Color0
f 1//1 2//1 3//1
f 4//2 3//2 2//2
f 5//1 1//1 3//1
f 6//1 5//1 3//1
f 7//3 6//3 3//3
f 7//3 3//3 4//3
f 8//1 9//1 2//1
f 10//4 2//4 9//4
f 1//1 8//1 2//1
f 4//2 2//2 10//2
f 11//1 12//1 9//1
f 13//5 9//5 12//5
f 8//1 11//1 9//1
f 10//4 9//4 13//4
f 14//1 15//1 12//1
f 16//6 12//6 15//6
f 11//1 14//1 12//1
f 13//5 12//5 16//5
f 17//1 18//1 15//1
f 19//7 15//7 18//7
f 14//1 17//1 15//1
f 16//6 15//6 19//6
f 20//8 18//8 17//8
f 19//7 18//7 20//7
f 21//9 17//9 14//9
f 20//8 17//8 21//8
f 22//10 14//10 11//10
f 21//9 14//9 22//9
f 23//11 11//11 8//11
f 22//10 11//10 23//10
f 24//12 8//12 1//12
f 23//11 8//11 24//11
f 25//13 1//13 5//13
f 24//12 1//12 25//12
f 6//1 26//1 5//1
f 27//14 5//14 26//14
f 25//13 5//13 27//13
f 28//1 29//1 26//1
f 30//15 26//15 29//15
f 6//1 28//1 26//1
f 27//14 26//14 30//14
f 31//1 32//1 29//1
f 33//16 29//16 32//16
f 28//1 31//1 29//1
f 30//15 29//15 33//15
f 34//1 35//1 32//1
f 36//17 32//17 35//17
f 31//1 34//1 32//1
f 33//16 32//16 36//16
f 37//18 35//18 34//18
f 36//17 35//17 37//17
f 38//19 34//19 31//19
f 37//18 34//18 38//18
f 39//20 31//20 28//20
f 39//19 38//19 31//19
f 40//21 28//21 6//21
f 39//20 28//20 40//20
f 40//21 6//21 7//21
f 39//22 37//22 38//22
f 39//22 36//22 37//22
f 40//22 33//22 36//22
f 39//22 40//22 36//22
f 7//22 30//22 33//22
f 40//22 7//22 33//22
f 4//22 27//22 30//22
f 7//22 4//22 30//22
f 10//22 25//22 27//22
f 4//22 10//22 27//22
f 13//22 24//22 25//22
f 10//22 13//22 25//22
f 16//22 23//22 24//22
f 13//22 16//22 24//22
f 19//22 22//22 23//22
f 16//22 19//22 23//22
f 20//22 21//22 22//22
f 19//22 20//22 22//22
# 76 Facets

